# xmcd
#
# Track frame offsets:
#	150
#	18944
#	38630
#	60875
#	74954
#	82862
#	102069
#	112000
#	134274
#	142146
#
# Disc length: 2135 seconds
#
# Revision: 0
# Processed by: cddbd v1.5.2PL0 Copyright (c) Steve Scherf et al.
# Submitted via: EasyCDDAExtractor 11.0.0.1
#
DISCID=8408550a
DTITLE=H-Tray - Susspend the hours
DYEAR=2011
DGENRE=Metal
TTITLE0=Suspend the hours
TTITLE1=Feelings storm between...
TTITLE2=Deathblow to your ago
TTITLE3=Builded our decline
TTITLE4=Straddle the horizon
TTITLE5=As a dust in the complex mechanic
TTITLE6=Kick some ass
TTITLE7=Powerty's not mental beggary
TTITLE8=Loneliness in the masses
TTITLE9=The sum of your misfortunes
EXTD=
EXTT0=
EXTT1=
EXTT2=
EXTT3=
EXTT4=
EXTT5=
EXTT6=
EXTT7=
EXTT8=
EXTT9=
PLAYORDER=
